# xmcd
#
# Track frame offsets: 
#        150
#        16945
#        30213
#        43765
#        56430
#        70053
#        82963
#        95998
#        107403
#        124488
#        136882
#        148765
#        161969
#        173202
#        184165
#        195969
#        208971
#        221479
#        234723
#        248571
#        262644
#        276808
#        290860
#
# Disc length: 4058 seconds
#
# Revision: 1
# Processed by: cddbd v1.5.2PL0 Copyright (c) Steve Scherf et al.
# Submitted via: ExactAudioCopyFreeDBPlugin 1.0
#
DISCID=520fd817
DTITLE=Various Artist - For One Night Only CD2
DYEAR=1900
DGENRE=Blues
TTITLE0=Albert Ammons - Boogie Woogie Blues
TTITLE1=Lightnin' Hopkins - Jake Head Boogie
TTITLE2=Big Bill Broonzy - Wee Wee Hours
TTITLE3=Sonny Terry - Whoopin' The Blues
TTITLE4=Sonny Boy Williamson - Better Cut That Out
TTITLE5=T-Bone Walker - Blues Is A Woman
TTITLE6=Howlin' Wolf - I've Got A Woman
TTITLE7=Lowell Fulson - Low Society Blues
TTITLE8=Muddy Waters - Sad, Sad Day
TTITLE9=Memphis Slim - Whiskey and Gin Blues
TTITLE10=John Lee Hooker - Walkin' The Boogie
TTITLE11=Ivory Joe Hunter - Landlord Blues
TTITLE12=B.B. King - When Your Baby Packs Up And Goes
TTITLE13=Joe Lutcher - Rockin' Boogie
TTITLE14=Bull Moose Jackson - We Ain't Got Nothin'
TTITLE15=Lonnie Johnson - Blues In "G"
TTITLE16=Roy Milton - Big Fat Mama
TTITLE17=Wynonie Harris - Who Threw The Whiskey In The Well?
TTITLE18=Pee Wee Crayton:Blues After Hours
TTITLE19=Roy Brown - Bar Room Blues
TTITLE20=Ray Charles - Kiss Me Baby
TTITLE21=Big Joe Turner - Back Breaking Blues
TTITLE22=Arthur "Big Boy" Crudup - That's All Right Mama
EXTD=
EXTT0=
EXTT1=
EXTT2=
EXTT3=
EXTT4=
EXTT5=
EXTT6=
EXTT7=
EXTT8=
EXTT9=
EXTT10=
EXTT11=
EXTT12=
EXTT13=
EXTT14=
EXTT15=
EXTT16=
EXTT17=
EXTT18=
EXTT19=
EXTT20=
EXTT21=
EXTT22=
PLAYORDER=
